<svg xmlns="http://www.w3.org/2000/svg" xmlns:xlink="http://www.w3.org/1999/xlink" width="500" zoomAndPan="magnify" viewBox="0 0 375 374.999991" height="500" preserveAspectRatio="xMidYMid meet" version="1.2"><defs><clipPath id="e4c66bc9a6"><path d="M 57.410156 132.675781 L 299.660156 132.675781 L 299.660156 242.175781 L 57.410156 242.175781 Z M 57.410156 132.675781 "/></clipPath><clipPath id="e3228ca163"><path d="M 0.46875 0.675781 L 179 0.675781 L 179 110.175781 L 0.46875 110.175781 Z M 0.46875 0.675781 "/></clipPath><clipPath id="063898ff47"><path d="M 8 4 L 242.660156 4 L 242.660156 107 L 8 107 Z M 8 4 "/></clipPath><clipPath id="b196e9df39"><rect x="0" width="243" y="0" height="111"/></clipPath><clipPath id="bd28376f77"><rect x="0" width="221" y="0" height="58"/></clipPath><clipPath id="bdd61fbc07"><path d="M 0.160156 4 L 10 4 L 10 15 L 0.160156 15 Z M 0.160156 4 "/></clipPath><clipPath id="fd67ad4670"><rect x="0" width="156" y="0" height="20"/></clipPath></defs><g id="b686723faa"><rect x="0" width="375" y="0" height="374.999991" style="fill:#ffffff;fill-opacity:1;stroke:none;"/><rect x="0" width="375" y="0" height="374.999991" style="fill:#ffffff;fill-opacity:1;stroke:none;"/><g clip-rule="nonzero" clip-path="url(#e4c66bc9a6)"><g transform="matrix(1,0,0,1,57,132)"><g clip-path="url(#b196e9df39)"><path style=" stroke:none;fill-rule:nonzero;fill:#000000;fill-opacity:1;" d="M 236.472656 31.78125 C 236.472656 31.78125 235.011719 36.085938 238.667969 42.511719 C 238.667969 42.511719 239.402344 43.648438 234.199219 41.371094 C 228.996094 39.097656 217.941406 35.765625 161.613281 40.3125 C 161.613281 40.316406 207.375 32.023438 236.472656 31.78125 Z M 236.472656 31.78125 "/><path style=" stroke:none;fill-rule:nonzero;fill:#c30015;fill-opacity:1;" d="M 201.199219 31.78125 C 201.199219 31.78125 165.476562 38.488281 124.328125 39.21875 C 83.179688 39.949219 75.214844 43.726562 70.253906 45.839844 L 41.96875 46.574219 C 41.96875 46.574219 60.429688 34.722656 113.050781 34.585938 C 159.828125 34.464844 188.03125 32.390625 201.199219 31.78125 Z M 201.199219 31.78125 "/><path style=" stroke:none;fill-rule:nonzero;fill:#c30015;fill-opacity:1;" d="M 231.3125 28.855469 C 231.3125 28.855469 216.195312 32.269531 184.375 22.878906 C 184.375 22.878906 146.214844 9.105469 119.027344 33 C 119.027344 33 109.332031 32.753906 103.238281 33 C 103.238281 33 137.171875 8.214844 174.074219 16.175781 C 198.191406 21.375 205.5 27.835938 231.3125 28.855469 Z M 231.3125 28.855469 "/><g clip-rule="nonzero" clip-path="url(#e3228ca163)"><path style=" stroke:none;fill-rule:nonzero;fill:#c30015;fill-opacity:1;" d="M 137.992188 0.691406 C 152.203125 0.691406 165.90625 1.566406 178.800781 3.191406 C 167.445312 1.957031 155.515625 1.300781 143.207031 1.300781 C 67.21875 1.300781 5.621094 26.355469 5.621094 57.261719 C 5.621094 81.890625 44.746094 102.808594 99.097656 110.285156 C 42.050781 103.464844 0.40625 82.019531 0.40625 56.621094 C 0.40625 25.734375 62.003906 0.691406 137.992188 0.691406 Z M 137.992188 0.691406 "/></g><g clip-rule="nonzero" clip-path="url(#063898ff47)"><path style=" stroke:none;fill-rule:nonzero;fill:#000000;fill-opacity:1;" d="M 145.664062 4.289062 C 183.539062 4.289062 217.839844 10.203125 242.722656 19.777344 C 219.066406 12.601562 189.019531 8.308594 156.320312 8.308594 C 80.070312 8.308594 18.257812 31.644531 18.257812 60.433594 C 18.257812 80.03125 46.910156 97.101562 89.265625 106.003906 C 41.402344 97.675781 8.074219 79.082031 8.074219 57.476562 C 8.078125 28.101562 69.675781 4.289062 145.664062 4.289062 Z M 145.664062 4.289062 "/></g></g></g></g><g transform="matrix(1,0,0,1,88,169)"><g clip-path="url(#bd28376f77)"><g style="fill:#000000;fill-opacity:1;"><g transform="translate(0.620246, 42.224941)"><path style="stroke:none" d="M 30.109375 -28.453125 L 25.09375 0 L 18.15625 0 L 20.21875 -11.796875 L 9.4375 -11.796875 L 7.375 0 L 0.453125 0 L 5.46875 -28.453125 L 12.40625 -28.453125 L 10.421875 -17.265625 L 21.203125 -17.265625 L 23.1875 -28.453125 Z M 30.109375 -28.453125 "/></g></g><g style="fill:#000000;fill-opacity:1;"><g transform="translate(31.588102, 42.224941)"><path style="stroke:none" d="M 13.984375 0.28125 C 11.578125 0.28125 9.460938 -0.21875 7.640625 -1.21875 C 5.816406 -2.21875 4.40625 -3.617188 3.40625 -5.421875 C 2.40625 -7.234375 1.90625 -9.316406 1.90625 -11.671875 C 1.90625 -14.992188 2.617188 -17.957031 4.046875 -20.5625 C 5.484375 -23.175781 7.476562 -25.210938 10.03125 -26.671875 C 12.582031 -28.128906 15.476562 -28.859375 18.71875 -28.859375 C 21.15625 -28.859375 23.289062 -28.363281 25.125 -27.375 C 26.96875 -26.394531 28.390625 -25.003906 29.390625 -23.203125 C 30.390625 -21.410156 30.890625 -19.347656 30.890625 -17.015625 C 30.890625 -13.691406 30.171875 -10.710938 28.734375 -8.078125 C 27.304688 -5.453125 25.304688 -3.398438 22.734375 -1.921875 C 20.171875 -0.453125 17.253906 0.28125 13.984375 0.28125 Z M 15.03125 -6.125 C 16.820312 -6.125 18.390625 -6.582031 19.734375 -7.5 C 21.085938 -8.414062 22.132812 -9.648438 22.875 -11.203125 C 23.625 -12.753906 24 -14.4375 24 -16.25 C 24 -18.195312 23.457031 -19.722656 22.375 -20.828125 C 21.289062 -21.941406 19.773438 -22.5 17.828125 -22.5 C 16.046875 -22.5 14.472656 -22.035156 13.109375 -21.109375 C 11.742188 -20.191406 10.6875 -18.96875 9.9375 -17.4375 C 9.195312 -15.914062 8.828125 -14.238281 8.828125 -12.40625 C 8.828125 -10.457031 9.367188 -8.921875 10.453125 -7.796875 C 11.535156 -6.679688 13.0625 -6.125 15.03125 -6.125 Z M 15.03125 -6.125 "/></g></g><g style="fill:#000000;fill-opacity:1;"><g transform="translate(64.785292, 42.224941)"><path style="stroke:none" d="M 17.109375 -28.453125 C 20.046875 -28.453125 22.285156 -27.78125 23.828125 -26.4375 C 25.367188 -25.101562 26.140625 -23.367188 26.140625 -21.234375 C 26.140625 -20.617188 26.085938 -20.039062 25.984375 -19.5 C 25.660156 -17.601562 24.832031 -15.910156 23.5 -14.421875 C 22.175781 -12.941406 20.410156 -11.890625 18.203125 -11.265625 L 22.78125 0 L 14.953125 0 L 10.9375 -10.734375 L 9.28125 -10.734375 L 7.375 0 L 0.453125 0 L 5.46875 -28.453125 Z M 18.890625 -19.21875 C 18.941406 -19.644531 18.96875 -19.925781 18.96875 -20.0625 C 18.96875 -20.925781 18.691406 -21.59375 18.140625 -22.0625 C 17.585938 -22.539062 16.769531 -22.78125 15.6875 -22.78125 L 11.390625 -22.78125 L 10.125 -15.640625 L 14.421875 -15.640625 C 15.691406 -15.640625 16.695312 -15.953125 17.4375 -16.578125 C 18.1875 -17.203125 18.671875 -18.082031 18.890625 -19.21875 Z M 18.890625 -19.21875 "/></g></g><g style="fill:#000000;fill-opacity:1;"><g transform="translate(92.551017, 42.224941)"><path style="stroke:none" d="M 12.40625 -28.453125 L 7.375 0 L 0.453125 0 L 5.46875 -28.453125 Z M 12.40625 -28.453125 "/></g></g><g style="fill:#000000;fill-opacity:1;"><g transform="translate(105.846339, 42.224941)"><path style="stroke:none" d="M 8.828125 -5.671875 L 21.078125 -5.671875 L 20.0625 0 L -0.046875 0 L 0.890625 -5.265625 L 16.125 -22.78125 L 3.96875 -22.78125 L 4.984375 -28.453125 L 25.09375 -28.453125 L 24.15625 -23.1875 Z M 8.828125 -5.671875 "/></g></g><g style="fill:#000000;fill-opacity:1;"><g transform="translate(131.3422, 42.224941)"><path style="stroke:none" d="M 13.984375 0.28125 C 11.578125 0.28125 9.460938 -0.21875 7.640625 -1.21875 C 5.816406 -2.21875 4.40625 -3.617188 3.40625 -5.421875 C 2.40625 -7.234375 1.90625 -9.316406 1.90625 -11.671875 C 1.90625 -14.992188 2.617188 -17.957031 4.046875 -20.5625 C 5.484375 -23.175781 7.476562 -25.210938 10.03125 -26.671875 C 12.582031 -28.128906 15.476562 -28.859375 18.71875 -28.859375 C 21.15625 -28.859375 23.289062 -28.363281 25.125 -27.375 C 26.96875 -26.394531 28.390625 -25.003906 29.390625 -23.203125 C 30.390625 -21.410156 30.890625 -19.347656 30.890625 -17.015625 C 30.890625 -13.691406 30.171875 -10.710938 28.734375 -8.078125 C 27.304688 -5.453125 25.304688 -3.398438 22.734375 -1.921875 C 20.171875 -0.453125 17.253906 0.28125 13.984375 0.28125 Z M 15.03125 -6.125 C 16.820312 -6.125 18.390625 -6.582031 19.734375 -7.5 C 21.085938 -8.414062 22.132812 -9.648438 22.875 -11.203125 C 23.625 -12.753906 24 -14.4375 24 -16.25 C 24 -18.195312 23.457031 -19.722656 22.375 -20.828125 C 21.289062 -21.941406 19.773438 -22.5 17.828125 -22.5 C 16.046875 -22.5 14.472656 -22.035156 13.109375 -21.109375 C 11.742188 -20.191406 10.6875 -18.96875 9.9375 -17.4375 C 9.195312 -15.914062 8.828125 -14.238281 8.828125 -12.40625 C 8.828125 -10.457031 9.367188 -8.921875 10.453125 -7.796875 C 11.535156 -6.679688 13.0625 -6.125 15.03125 -6.125 Z M 15.03125 -6.125 "/></g></g><g style="fill:#000000;fill-opacity:1;"><g transform="translate(164.53939, 42.224941)"><path style="stroke:none" d="M 25.90625 0 L 18.96875 0 L 10.5 -17.546875 L 7.375 0 L 0.453125 0 L 5.46875 -28.453125 L 12.40625 -28.453125 L 20.875 -10.828125 L 24 -28.453125 L 30.921875 -28.453125 Z M 25.90625 0 "/></g></g><g style="fill:#000000;fill-opacity:1;"><g transform="translate(196.358456, 42.224941)"><path style="stroke:none" d="M 11.4375 -22.984375 L 10.421875 -17.0625 L 19.703125 -17.0625 L 18.765625 -11.828125 L 9.484375 -11.828125 L 8.34375 -5.46875 L 18.84375 -5.46875 L 17.875 0 L 0.453125 0 L 5.46875 -28.453125 L 22.90625 -28.453125 L 21.921875 -22.984375 Z M 11.4375 -22.984375 "/></g></g></g></g><g transform="matrix(1,0,0,1,146,216)"><g clip-path="url(#fd67ad4670)"><g clip-rule="nonzero" clip-path="url(#bdd61fbc07)"><g style="fill:#000000;fill-opacity:1;"><g transform="translate(0.944609, 14.298463)"><path style="stroke:none" d="M 6.296875 -1.65625 L 2.78125 -1.65625 L 1.921875 0 L -0.46875 0 L 4.59375 -9.40625 L 7.25 -9.40625 L 8.984375 0 L 6.5625 0 Z M 6.03125 -3.40625 L 5.484375 -6.875 L 3.6875 -3.40625 Z M 6.03125 -3.40625 "/></g></g></g><g style="fill:#000000;fill-opacity:1;"><g transform="translate(13.094254, 14.298463)"><path style="stroke:none" d="M 4.0625 -9.40625 L 3.0625 -3.796875 C 3.03125 -3.554688 3.015625 -3.394531 3.015625 -3.3125 C 3.015625 -2.894531 3.128906 -2.578125 3.359375 -2.359375 C 3.585938 -2.140625 3.929688 -2.03125 4.390625 -2.03125 C 4.929688 -2.03125 5.367188 -2.179688 5.703125 -2.484375 C 6.046875 -2.796875 6.265625 -3.234375 6.359375 -3.796875 L 7.34375 -9.40625 L 9.640625 -9.40625 L 8.65625 -3.796875 C 8.5 -2.941406 8.191406 -2.222656 7.734375 -1.640625 C 7.285156 -1.054688 6.738281 -0.617188 6.09375 -0.328125 C 5.445312 -0.046875 4.742188 0.09375 3.984375 0.09375 C 3.003906 0.09375 2.210938 -0.160156 1.609375 -0.671875 C 1.003906 -1.179688 0.703125 -1.914062 0.703125 -2.875 C 0.703125 -3.164062 0.734375 -3.472656 0.796875 -3.796875 L 1.765625 -9.40625 Z M 4.0625 -9.40625 "/></g></g><g style="fill:#000000;fill-opacity:1;"><g transform="translate(24.815302, 14.298463)"><path style="stroke:none" d="M 8.5625 -9.40625 L 8.265625 -7.59375 L 5.765625 -7.59375 L 4.421875 0 L 2.125 0 L 3.46875 -7.59375 L 0.984375 -7.59375 L 1.296875 -9.40625 Z M 8.5625 -9.40625 "/></g></g><g style="fill:#000000;fill-opacity:1;"><g transform="translate(35.009463, 14.298463)"><path style="stroke:none" d="M 4.625 0.09375 C 3.820312 0.09375 3.117188 -0.0664062 2.515625 -0.390625 C 1.921875 -0.722656 1.457031 -1.1875 1.125 -1.78125 C 0.789062 -2.382812 0.625 -3.078125 0.625 -3.859375 C 0.625 -4.953125 0.859375 -5.929688 1.328125 -6.796875 C 1.804688 -7.660156 2.46875 -8.332031 3.3125 -8.8125 C 4.15625 -9.289062 5.113281 -9.53125 6.1875 -9.53125 C 6.988281 -9.53125 7.691406 -9.367188 8.296875 -9.046875 C 8.910156 -8.722656 9.378906 -8.265625 9.703125 -7.671875 C 10.035156 -7.078125 10.203125 -6.394531 10.203125 -5.625 C 10.203125 -4.53125 9.960938 -3.546875 9.484375 -2.671875 C 9.015625 -1.796875 8.351562 -1.113281 7.5 -0.625 C 6.65625 -0.144531 5.695312 0.09375 4.625 0.09375 Z M 4.96875 -2.015625 C 5.5625 -2.015625 6.078125 -2.164062 6.515625 -2.46875 C 6.960938 -2.78125 7.304688 -3.191406 7.546875 -3.703125 C 7.796875 -4.210938 7.921875 -4.769531 7.921875 -5.375 C 7.921875 -6.007812 7.742188 -6.507812 7.390625 -6.875 C 7.035156 -7.25 6.535156 -7.4375 5.890625 -7.4375 C 5.304688 -7.4375 4.785156 -7.28125 4.328125 -6.96875 C 3.878906 -6.664062 3.53125 -6.265625 3.28125 -5.765625 C 3.039062 -5.265625 2.921875 -4.707031 2.921875 -4.09375 C 2.921875 -3.457031 3.097656 -2.953125 3.453125 -2.578125 C 3.804688 -2.203125 4.3125 -2.015625 4.96875 -2.015625 Z M 4.96875 -2.015625 "/></g></g><g style="fill:#000000;fill-opacity:1;"><g transform="translate(47.81539, 14.298463)"><path style="stroke:none" d=""/></g></g><g style="fill:#000000;fill-opacity:1;"><g transform="translate(53.187833, 14.298463)"><path style="stroke:none" d="M 5.328125 -9.40625 C 6.191406 -9.40625 6.9375 -9.25 7.5625 -8.9375 C 8.195312 -8.625 8.679688 -8.1875 9.015625 -7.625 C 9.347656 -7.070312 9.515625 -6.421875 9.515625 -5.671875 C 9.515625 -5.421875 9.484375 -5.097656 9.421875 -4.703125 C 9.265625 -3.785156 8.921875 -2.96875 8.390625 -2.25 C 7.859375 -1.53125 7.179688 -0.972656 6.359375 -0.578125 C 5.546875 -0.191406 4.648438 0 3.671875 0 L 0.140625 0 L 1.8125 -9.40625 Z M 3.875 -1.953125 C 4.738281 -1.953125 5.453125 -2.191406 6.015625 -2.671875 C 6.585938 -3.160156 6.945312 -3.835938 7.09375 -4.703125 C 7.132812 -4.972656 7.15625 -5.195312 7.15625 -5.375 C 7.15625 -6.03125 6.953125 -6.535156 6.546875 -6.890625 C 6.148438 -7.253906 5.582031 -7.4375 4.84375 -7.4375 L 3.75 -7.4375 L 2.78125 -1.953125 Z M 3.875 -1.953125 "/></g></g><g style="fill:#000000;fill-opacity:1;"><g transform="translate(65.203533, 14.298463)"><path style="stroke:none" d="M 3.78125 -7.59375 L 3.4375 -5.640625 L 6.5 -5.640625 L 6.203125 -3.90625 L 3.140625 -3.90625 L 2.765625 -1.8125 L 6.234375 -1.8125 L 5.90625 0 L 0.140625 0 L 1.8125 -9.40625 L 7.5625 -9.40625 L 7.25 -7.59375 Z M 3.78125 -7.59375 "/></g></g><g style="fill:#000000;fill-opacity:1;"><g transform="translate(74.728014, 14.298463)"><path style="stroke:none" d="M 6.296875 -1.65625 L 2.78125 -1.65625 L 1.921875 0 L -0.46875 0 L 4.59375 -9.40625 L 7.25 -9.40625 L 8.984375 0 L 6.5625 0 Z M 6.03125 -3.40625 L 5.484375 -6.875 L 3.6875 -3.40625 Z M 6.03125 -3.40625 "/></g></g><g style="fill:#000000;fill-opacity:1;"><g transform="translate(86.877659, 14.298463)"><path style="stroke:none" d="M 2.75 -1.734375 L 5.75 -1.734375 L 5.4375 0 L 0.140625 0 L 1.8125 -9.40625 L 4.09375 -9.40625 Z M 2.75 -1.734375 "/></g></g><g style="fill:#000000;fill-opacity:1;"><g transform="translate(95.544946, 14.298463)"><path style="stroke:none" d="M 3.78125 -7.59375 L 3.4375 -5.640625 L 6.5 -5.640625 L 6.203125 -3.90625 L 3.140625 -3.90625 L 2.765625 -1.8125 L 6.234375 -1.8125 L 5.90625 0 L 0.140625 0 L 1.8125 -9.40625 L 7.5625 -9.40625 L 7.25 -7.59375 Z M 3.78125 -7.59375 "/></g></g><g style="fill:#000000;fill-opacity:1;"><g transform="translate(105.069427, 14.298463)"><path style="stroke:none" d="M 5.65625 -9.40625 C 6.625 -9.40625 7.363281 -9.179688 7.875 -8.734375 C 8.382812 -8.296875 8.640625 -7.722656 8.640625 -7.015625 C 8.640625 -6.804688 8.617188 -6.613281 8.578125 -6.4375 C 8.472656 -5.8125 8.203125 -5.253906 7.765625 -4.765625 C 7.328125 -4.273438 6.742188 -3.925781 6.015625 -3.71875 L 7.53125 0 L 4.9375 0 L 3.609375 -3.546875 L 3.0625 -3.546875 L 2.4375 0 L 0.140625 0 L 1.8125 -9.40625 Z M 6.234375 -6.34375 C 6.253906 -6.488281 6.265625 -6.582031 6.265625 -6.625 C 6.265625 -6.914062 6.171875 -7.140625 5.984375 -7.296875 C 5.804688 -7.453125 5.539062 -7.53125 5.1875 -7.53125 L 3.765625 -7.53125 L 3.34375 -5.171875 L 4.765625 -5.171875 C 5.179688 -5.171875 5.515625 -5.269531 5.765625 -5.46875 C 6.015625 -5.675781 6.171875 -5.96875 6.234375 -6.34375 Z M 6.234375 -6.34375 "/></g></g><g style="fill:#000000;fill-opacity:1;"><g transform="translate(116.080612, 14.298463)"><path style="stroke:none" d="M 3.890625 0.09375 C 2.867188 0.09375 2.035156 -0.125 1.390625 -0.5625 C 0.753906 -1.007812 0.4375 -1.640625 0.4375 -2.453125 C 0.4375 -2.535156 0.445312 -2.65625 0.46875 -2.8125 L 2.859375 -2.8125 C 2.828125 -2.46875 2.90625 -2.195312 3.09375 -2 C 3.28125 -1.8125 3.566406 -1.71875 3.953125 -1.71875 C 4.296875 -1.71875 4.566406 -1.789062 4.765625 -1.9375 C 4.972656 -2.09375 5.078125 -2.304688 5.078125 -2.578125 C 5.078125 -2.867188 4.945312 -3.101562 4.6875 -3.28125 C 4.4375 -3.457031 4.046875 -3.660156 3.515625 -3.890625 C 2.992188 -4.097656 2.566406 -4.296875 2.234375 -4.484375 C 1.910156 -4.679688 1.628906 -4.941406 1.390625 -5.265625 C 1.148438 -5.597656 1.03125 -6.015625 1.03125 -6.515625 C 1.019531 -7.128906 1.171875 -7.664062 1.484375 -8.125 C 1.796875 -8.582031 2.226562 -8.929688 2.78125 -9.171875 C 3.332031 -9.410156 3.96875 -9.53125 4.6875 -9.53125 C 5.332031 -9.53125 5.90625 -9.429688 6.40625 -9.234375 C 6.90625 -9.035156 7.289062 -8.742188 7.5625 -8.359375 C 7.84375 -7.984375 7.984375 -7.535156 7.984375 -7.015625 C 7.984375 -6.878906 7.976562 -6.78125 7.96875 -6.71875 L 5.53125 -6.71875 C 5.539062 -6.757812 5.546875 -6.8125 5.546875 -6.875 C 5.546875 -7.125 5.457031 -7.328125 5.28125 -7.484375 C 5.101562 -7.640625 4.863281 -7.71875 4.5625 -7.71875 C 4.238281 -7.71875 3.976562 -7.640625 3.78125 -7.484375 C 3.582031 -7.328125 3.484375 -7.117188 3.484375 -6.859375 C 3.484375 -6.585938 3.609375 -6.359375 3.859375 -6.171875 C 4.109375 -5.992188 4.492188 -5.785156 5.015625 -5.546875 C 5.546875 -5.304688 5.976562 -5.082031 6.3125 -4.875 C 6.644531 -4.664062 6.929688 -4.390625 7.171875 -4.046875 C 7.410156 -3.703125 7.53125 -3.28125 7.53125 -2.78125 C 7.53125 -2.226562 7.382812 -1.734375 7.09375 -1.296875 C 6.800781 -0.859375 6.378906 -0.515625 5.828125 -0.265625 C 5.273438 -0.0234375 4.628906 0.09375 3.890625 0.09375 Z M 3.890625 0.09375 "/></g></g><g style="fill:#000000;fill-opacity:1;"><g transform="translate(126.689984, 14.298463)"><path style="stroke:none" d="M 9.953125 -9.40625 L 8.28125 0 L 6 0 L 6.6875 -3.890625 L 3.125 -3.890625 L 2.4375 0 L 0.140625 0 L 1.8125 -9.40625 L 4.09375 -9.40625 L 3.4375 -5.703125 L 7 -5.703125 L 7.65625 -9.40625 Z M 9.953125 -9.40625 "/></g></g><g style="fill:#000000;fill-opacity:1;"><g transform="translate(138.759264, 14.298463)"><path style="stroke:none" d="M 4.09375 -9.40625 L 2.4375 0 L 0.140625 0 L 1.8125 -9.40625 Z M 4.09375 -9.40625 "/></g></g><g style="fill:#000000;fill-opacity:1;"><g transform="translate(144.988901, 14.298463)"><path style="stroke:none" d="M 8.4375 -6.375 C 8.34375 -5.832031 8.128906 -5.332031 7.796875 -4.875 C 7.472656 -4.425781 7.023438 -4.0625 6.453125 -3.78125 C 5.890625 -3.507812 5.222656 -3.375 4.453125 -3.375 L 3.046875 -3.375 L 2.4375 0 L 0.140625 0 L 1.8125 -9.40625 L 5.515625 -9.40625 C 6.492188 -9.40625 7.234375 -9.1875 7.734375 -8.75 C 8.234375 -8.3125 8.484375 -7.722656 8.484375 -6.984375 C 8.484375 -6.765625 8.46875 -6.5625 8.4375 -6.375 Z M 4.59375 -5.171875 C 5.445312 -5.171875 5.953125 -5.570312 6.109375 -6.375 C 6.128906 -6.519531 6.140625 -6.625 6.140625 -6.6875 C 6.140625 -6.96875 6.046875 -7.1875 5.859375 -7.34375 C 5.671875 -7.5 5.390625 -7.578125 5.015625 -7.578125 L 3.78125 -7.578125 L 3.359375 -5.171875 Z M 4.59375 -5.171875 "/></g></g></g></g></g></svg>